    <svg
        width="700pt"
        height="700pt"
        version="1.1"
        viewBox="0 0 700 700"
        xmlns="http://www.w3.org/2000/svg"
    >
        <g>
            <path d="m156.1 23.332c-2.8438-1.1641-6.0273-1.1641-8.8672 0-1.457 0.5-2.75 1.3867-3.7344 2.5664l-46.668 46.668c-2.2539 2.1172-3.5352 5.0742-3.5352 8.168s1.2812 6.0469 3.5352 8.1641c2.1172 2.2578 5.0742 3.5352 8.168 3.5352s6.0508-1.2773 8.168-3.5352l26.832-25.664v270.2l-26.832-26.602c-2.1172-2.2539-5.0742-3.5352-8.168-3.5352s-6.0508 1.2812-8.168 3.5352c-2.2539 2.1172-3.5352 5.0742-3.5352 8.168s1.2812 6.0508 3.5352 8.168l46.668 46.668v-0.003907c0.98438 1.1836 2.2773 2.0703 3.7344 2.5664 2.8242 1.25 6.043 1.25 8.8672 0 3.1875-0.99219 5.8125-3.2773 7.2305-6.2969 0.34766-1.457 0.34766-2.9766 0-4.4336v-326.67c0.34766-1.457 0.34766-2.9766 0-4.4336-1.1992-3.3789-3.8555-6.0352-7.2305-7.2344z" />
            <path d="m606.67 473.9c-1.207-2.8359-3.4648-5.0938-6.3008-6.2969-1.457-0.34766-2.9766-0.34766-4.4336 0h-327.6c-1.457-0.34766-2.9766-0.34766-4.4336 0-2.8359 1.2031-5.0938 3.4609-6.2969 6.2969-1.168 2.8438-1.168 6.0273 0 8.8672 0.49609 1.457 1.3828 2.75 2.5664 3.7344l46.668 46.668h-0.003907c2.1172 2.2539 5.0742 3.5352 8.168 3.5352s6.0508-1.2812 8.168-3.5352c2.2539-2.1172 3.5352-5.0742 3.5352-8.168s-1.2812-6.0508-3.5352-8.168l-26.602-26.832h270.2l-26.602 26.832h0.003907c-2.2578 2.1172-3.5352 5.0742-3.5352 8.168s1.2773 6.0508 3.5352 8.168c2.1172 2.2539 5.0703 3.5352 8.1641 3.5352s6.0508-1.2812 8.168-3.5352l46.668-46.668c1.1797-0.98438 2.0664-2.2773 2.5664-3.7344 1.4727-2.7148 1.8086-5.9023 0.93359-8.8672z" />
            <path d="m583.33 23.332h-350c-6.1875 0-12.121 2.4609-16.496 6.8359-4.3789 4.375-6.8359 10.309-6.8359 16.5v350c0 6.1875 2.457 12.121 6.8359 16.496 4.375 4.3789 10.309 6.8359 16.496 6.8359h350c6.1914 0 12.125-2.457 16.5-6.8359 4.375-4.375 6.8359-10.309 6.8359-16.496v-350c0-6.1914-2.4609-12.125-6.8359-16.5s-10.309-6.8359-16.5-6.8359zm0 373.33-350 0.003907v-350h350z" />
        </g>
    </svg>