<?xml version="1.0" encoding="utf-8"?>
<!-- Generator: Adobe Illustrator 24.1.2, SVG Export Plug-In . SVG Version: 6.00 Build 0)  -->
<svg version="1.1" id="Capa_1" xmlns="http://www.w3.org/2000/svg" xmlns:xlink="http://www.w3.org/1999/xlink" x="0px" y="0px"
	 viewBox="0 0 1366 615" style="enable-background:new 0 0 1366 615;" xml:space="preserve">
<style type="text/css">
	.st0{fill:#5046E5;}
	.st1{fill:#666666;}
</style>
<path id="XMLID_2_" class="st0" d="M127.06,461.7v144.98H93.22v-61.3H34.32v61.3H0.48V461.7h33.83v60.6h58.91v-60.6H127.06z"/>
<path id="XMLID_28_" class="st0" d="M297.41,534.14c0,10.48-1.81,20.23-5.42,29.25c-3.62,9.02-8.71,16.87-15.27,23.53
	c-6.57,6.67-14.48,11.89-23.73,15.67c-9.25,3.78-19.52,5.67-30.8,5.67c-11.28,0-21.56-1.89-30.85-5.67
	c-9.29-3.78-17.23-9.01-23.83-15.67c-6.6-6.67-11.71-14.51-15.32-23.53c-3.62-9.02-5.42-18.77-5.42-29.25
	c0-10.48,1.81-20.23,5.42-29.26c3.61-9.02,8.72-16.85,15.32-23.48c6.6-6.63,14.54-11.84,23.83-15.62
	c9.29-3.78,19.57-5.67,30.85-5.67c11.28,0,21.54,1.91,30.8,5.72c9.26,3.82,17.17,9.04,23.73,15.67
	c6.57,6.63,11.66,14.46,15.27,23.48C295.6,514.01,297.41,523.73,297.41,534.14z M262.98,534.14c0-7.16-0.93-13.62-2.79-19.35
	c-1.86-5.74-4.53-10.6-8.01-14.58c-3.48-3.98-7.75-7.03-12.79-9.15c-5.04-2.12-10.78-3.19-17.21-3.19c-6.5,0-12.29,1.06-17.36,3.19
	c-5.08,2.12-9.35,5.17-12.84,9.15c-3.48,3.98-6.16,8.84-8.01,14.58c-1.86,5.74-2.79,12.19-2.79,19.35c0,7.23,0.93,13.72,2.79,19.45
	c1.86,5.74,4.53,10.6,8.01,14.58c3.48,3.98,7.76,7.01,12.84,9.1c5.07,2.09,10.86,3.13,17.36,3.13c6.43,0,12.17-1.05,17.21-3.13
	c5.04-2.09,9.31-5.12,12.79-9.1c3.48-3.98,6.15-8.84,8.01-14.58C262.05,547.86,262.98,541.37,262.98,534.14z"/>
<path id="XMLID_45_" class="st0" d="M377.71,580.12c4.51,0,8.54-0.75,12.09-2.24c3.55-1.49,6.55-3.63,9.01-6.42
	c2.45-2.79,4.33-6.18,5.62-10.2c1.29-4.01,1.94-8.57,1.94-13.68V461.7h33.63v85.87c0,8.89-1.44,17.05-4.33,24.48
	c-2.88,7.43-7.01,13.83-12.39,19.2c-5.37,5.37-11.91,9.55-19.6,12.54c-7.7,2.99-16.35,4.48-25.97,4.48
	c-9.69,0-18.38-1.49-26.07-4.48c-7.7-2.98-14.23-7.16-19.6-12.54c-5.37-5.37-9.49-11.77-12.34-19.2
	c-2.85-7.43-4.28-15.59-4.28-24.48V461.7h33.63v85.78c0,5.11,0.65,9.67,1.94,13.68c1.29,4.02,3.17,7.43,5.62,10.25
	c2.45,2.82,5.45,4.98,9.01,6.47C369.17,579.37,373.2,580.12,377.71,580.12z"/>
<path id="XMLID_49_" class="st0" d="M546.38,491.15c-1,1.59-2.04,2.79-3.13,3.58c-1.1,0.8-2.51,1.2-4.23,1.2
	c-1.53,0-3.17-0.48-4.92-1.44c-1.76-0.96-3.75-2.04-5.97-3.23c-2.22-1.19-4.76-2.27-7.61-3.23c-2.85-0.96-6.11-1.44-9.75-1.44
	c-6.3,0-11,1.34-14.08,4.03c-3.08,2.69-4.63,6.32-4.63,10.9c0,2.92,0.93,5.34,2.79,7.26c1.86,1.93,4.29,3.58,7.32,4.98
	c3.02,1.39,6.47,2.67,10.35,3.83c3.88,1.16,7.84,2.45,11.89,3.88c4.04,1.43,8.01,3.1,11.89,5.02c3.88,1.93,7.33,4.38,10.35,7.36
	c3.02,2.98,5.45,6.62,7.31,10.9c1.86,4.28,2.79,9.44,2.79,15.48c0,6.7-1.16,12.97-3.48,18.81c-2.32,5.84-5.69,10.93-10.1,15.27
	c-4.41,4.35-9.85,7.76-16.32,10.25c-6.47,2.49-13.82,3.73-22.04,3.73c-4.51,0-9.1-0.47-13.78-1.39c-4.68-0.93-9.2-2.24-13.58-3.93
	c-4.38-1.69-8.49-3.7-12.34-6.02c-3.85-2.32-7.2-4.91-10.05-7.76l9.95-15.72c0.8-1.13,1.84-2.07,3.13-2.84
	c1.29-0.76,2.7-1.14,4.23-1.14c1.99,0,4,0.63,6.02,1.89c2.02,1.26,4.31,2.65,6.87,4.18c2.55,1.53,5.49,2.92,8.81,4.18
	c3.32,1.26,7.23,1.89,11.74,1.89c6.1,0,10.85-1.34,14.23-4.03c3.38-2.69,5.07-6.95,5.07-12.79c0-3.38-0.93-6.14-2.79-8.26
	c-1.86-2.12-4.3-3.88-7.32-5.27c-3.02-1.39-6.45-2.62-10.3-3.68c-3.85-1.06-7.8-2.24-11.84-3.53c-4.05-1.29-7.99-2.88-11.84-4.78
	c-3.85-1.89-7.28-4.38-10.3-7.46c-3.02-3.09-5.46-6.93-7.32-11.54c-1.86-4.61-2.79-10.3-2.79-17.07c0-5.44,1.1-10.75,3.28-15.92
	c2.19-5.17,5.41-9.78,9.65-13.83c4.24-4.05,9.45-7.28,15.62-9.7c6.17-2.42,13.24-3.63,21.2-3.63c4.44,0,8.77,0.35,12.99,1.04
	c4.21,0.7,8.21,1.72,11.99,3.08c3.78,1.36,7.31,2.98,10.6,4.88c3.28,1.89,6.22,4.03,8.81,6.42L546.38,491.15z"/>
<path id="XMLID_53_" class="st0" d="M610.36,487.57v33.83h45.57v24.88h-45.57v34.53h59.51v25.87h-93.34V461.7h93.34v25.87H610.36z"
	/>
<path id="XMLID_57_" class="st1" d="M770.67,491.15c-1,1.59-2.04,2.79-3.14,3.58c-1.1,0.8-2.51,1.2-4.23,1.2
	c-1.53,0-3.17-0.48-4.92-1.44c-1.76-0.96-3.75-2.04-5.97-3.23c-2.22-1.19-4.76-2.27-7.61-3.23c-2.85-0.96-6.11-1.44-9.75-1.44
	c-6.3,0-11,1.34-14.08,4.03c-3.09,2.69-4.63,6.32-4.63,10.9c0,2.92,0.93,5.34,2.79,7.26c1.86,1.93,4.3,3.58,7.32,4.98
	c3.02,1.39,6.47,2.67,10.35,3.83c3.88,1.16,7.84,2.45,11.89,3.88c4.04,1.43,8.01,3.1,11.89,5.02c3.88,1.93,7.33,4.38,10.35,7.36
	c3.02,2.98,5.46,6.62,7.31,10.9c1.86,4.28,2.79,9.44,2.79,15.48c0,6.7-1.16,12.97-3.48,18.81c-2.32,5.84-5.69,10.93-10.1,15.27
	c-4.41,4.35-9.85,7.76-16.32,10.25c-6.47,2.49-13.82,3.73-22.04,3.73c-4.51,0-9.1-0.47-13.78-1.39c-4.68-0.93-9.2-2.24-13.58-3.93
	c-4.38-1.69-8.49-3.7-12.34-6.02c-3.85-2.32-7.2-4.91-10.05-7.76l9.95-15.72c0.8-1.13,1.84-2.07,3.13-2.84
	c1.29-0.76,2.7-1.14,4.23-1.14c1.99,0,4,0.63,6.02,1.89c2.02,1.26,4.31,2.65,6.87,4.18c2.55,1.53,5.49,2.92,8.8,4.18
	c3.32,1.26,7.23,1.89,11.74,1.89c6.1,0,10.85-1.34,14.23-4.03c3.38-2.69,5.07-6.95,5.07-12.79c0-3.38-0.93-6.14-2.79-8.26
	c-1.86-2.12-4.3-3.88-7.32-5.27s-6.45-2.62-10.3-3.68c-3.85-1.06-7.8-2.24-11.84-3.53c-4.05-1.29-7.99-2.88-11.84-4.78
	c-3.85-1.89-7.28-4.38-10.3-7.46c-3.02-3.09-5.46-6.93-7.32-11.54c-1.86-4.61-2.79-10.3-2.79-17.07c0-5.44,1.1-10.75,3.28-15.92
	c2.19-5.17,5.41-9.78,9.65-13.83c4.24-4.05,9.45-7.28,15.62-9.7c6.17-2.42,13.24-3.63,21.2-3.63c4.44,0,8.77,0.35,12.99,1.04
	c4.21,0.7,8.21,1.72,11.99,3.08c3.78,1.36,7.31,2.98,10.6,4.88c3.28,1.89,6.22,4.03,8.81,6.42L770.67,491.15z"/>
<path id="XMLID_95_" class="st1" d="M963.81,461.7v144.98h-29.65V523.3c0-1.92,0.05-4.01,0.15-6.27c0.1-2.25,0.28-4.54,0.55-6.87
	l-38.51,74.53c-1.19,2.32-2.8,4.08-4.83,5.27c-2.02,1.2-4.33,1.79-6.92,1.79h-4.58c-2.59,0-4.89-0.6-6.92-1.79
	c-2.02-1.19-3.63-2.95-4.83-5.27l-38.51-74.73c0.2,2.39,0.36,4.73,0.5,7.01c0.13,2.29,0.2,4.4,0.2,6.32v83.39h-29.65V461.7h25.67
	c1.46,0,2.74,0.03,3.83,0.1c1.09,0.07,2.07,0.27,2.93,0.6c0.86,0.33,1.64,0.85,2.34,1.54c0.7,0.7,1.37,1.68,2.04,2.93l37.32,73.54
	c1.32,2.52,2.6,5.14,3.83,7.86c1.23,2.72,2.4,5.51,3.53,8.36c1.13-2.92,2.31-5.77,3.53-8.56c1.23-2.79,2.54-5.44,3.93-7.96
	l37.22-73.24c0.66-1.26,1.34-2.24,2.04-2.93c0.7-0.7,1.48-1.21,2.34-1.54c0.86-0.33,1.84-0.53,2.94-0.6c1.09-0.06,2.37-0.1,3.83-0.1
	H963.81z"/>
<path id="XMLID_103_" class="st1" d="M1121.92,606.68h-26.07c-2.92,0-5.27-0.68-7.06-2.04c-1.79-1.36-3.15-3.1-4.08-5.23
	l-8.56-25.28h-55.13l-8.56,25.28c-0.73,1.86-2.04,3.53-3.93,5.03c-1.89,1.49-4.23,2.24-7.02,2.24h-26.27l56.12-144.98h34.43
	L1121.92,606.68z M1068.49,551.26l-13.43-39.7c-0.99-2.52-2.06-5.49-3.19-8.91c-1.13-3.42-2.25-7.11-3.38-11.09
	c-0.99,4.05-2.06,7.8-3.18,11.24c-1.13,3.45-2.19,6.43-3.19,8.96l-13.33,39.5H1068.49z"/>
<path id="XMLID_107_" class="st1" d="M1251.98,606.68h-30.45c-5.64,0-9.69-2.12-12.14-6.37l-24.08-42.09
	c-1.13-1.79-2.39-3.1-3.78-3.93c-1.39-0.83-3.38-1.24-5.97-1.24H1167v53.63h-33.63V461.7h47.17c10.48,0,19.42,1.08,26.82,3.23
	c7.4,2.16,13.44,5.16,18.11,9.01c4.68,3.85,8.08,8.39,10.2,13.63c2.12,5.24,3.18,10.95,3.18,17.12c0,4.71-0.63,9.15-1.89,13.33
	c-1.26,4.18-3.12,8.04-5.57,11.59c-2.45,3.55-5.49,6.71-9.1,9.5c-3.62,2.79-7.78,5.08-12.49,6.87c2.19,1.13,4.24,2.54,6.17,4.23
	c1.92,1.69,3.65,3.7,5.18,6.02L1251.98,606.68z M1180.53,529.86c4.58,0,8.48-0.58,11.69-1.74c3.22-1.16,5.85-2.77,7.91-4.83
	c2.05-2.05,3.55-4.46,4.48-7.21c0.93-2.75,1.39-5.72,1.39-8.91c0-6.37-2.08-11.34-6.22-14.93c-4.15-3.58-10.57-5.37-19.26-5.37H1167
	v42.99H1180.53z"/>
<path id="XMLID_128_" class="st1" d="M1365.52,488.37h-40.8v118.32h-33.63V488.37h-40.8V461.7h115.23V488.37z"/>
<polygon class="st0" points="580.99,175.97 675.98,80.99 770.98,175.97 840.96,175.97 675.98,11 601.65,85.33 552.23,85.33 
	552.23,134.75 511,175.97 "/>
<path class="st0" d="M680.42,175.97c-21.22,0-38.42,17.2-38.42,38.42c0,21.22,17.2,38.42,38.42,38.42
	c16.55,0,30.62-10.49,36.02-25.17h62.33v78.76H571.22v-96.24h-49.49v145.73h306.52V227.64v-17.48v-6H717.42
	C712.93,187.91,698.09,175.97,680.42,175.97z"/>
</svg>
